<?xml version="1.0" encoding="UTF-8" standalone="no"?>
<!-- Created with Inkscape (http://www.inkscape.org/) -->

<svg
   width="1280"
   height="720"
   viewBox="0 0 338.66666 190.5"
   version="1.1"
   id="svg5"
   inkscape:version="1.2.2 (b0a8486541, 2022-12-01)"
   sodipodi:docname="cockpit.svg"
   xml:space="preserve"
   xmlns:inkscape="http://www.inkscape.org/namespaces/inkscape"
   xmlns:sodipodi="http://sodipodi.sourceforge.net/DTD/sodipodi-0.dtd"
   xmlns:xlink="http://www.w3.org/1999/xlink"
   xmlns="http://www.w3.org/2000/svg"
   xmlns:svg="http://www.w3.org/2000/svg"><sodipodi:namedview
     id="namedview7"
     pagecolor="#000000"
     bordercolor="#999999"
     borderopacity="1"
     inkscape:showpageshadow="0"
     inkscape:pageopacity="0"
     inkscape:pagecheckerboard="0"
     inkscape:deskcolor="#d1d1d1"
     inkscape:document-units="mm"
     showgrid="false"
     inkscape:zoom="6.2844441"
     inkscape:cx="625.83101"
     inkscape:cy="680.56935"
     inkscape:window-width="3200"
     inkscape:window-height="1731"
     inkscape:window-x="0"
     inkscape:window-y="0"
     inkscape:window-maximized="1"
     inkscape:current-layer="layer1"
     showguides="false" /><defs
     id="defs2"><linearGradient
       inkscape:collect="always"
       id="linearGradient1226"><stop
         style="stop-color:#cccccc;stop-opacity:1"
         offset="0"
         id="stop1222" /><stop
         style="stop-color:#e6e6e6;stop-opacity:1"
         offset="1"
         id="stop1224" /></linearGradient><inkscape:path-effect
       effect="spiro"
       id="path-effect2183"
       is_visible="true"
       lpeversion="1" /><linearGradient
       inkscape:collect="always"
       id="linearGradient565"><stop
         style="stop-color:#f9f9f9;stop-opacity:1;"
         offset="0"
         id="stop561" /><stop
         style="stop-color:#f9f9f9;stop-opacity:0;"
         offset="1"
         id="stop563" /></linearGradient><inkscape:path-effect
       effect="spiro"
       id="path-effect635"
       is_visible="true"
       lpeversion="1" /><inkscape:path-effect
       effect="spiro"
       id="path-effect499"
       is_visible="true"
       lpeversion="1" /><linearGradient
       inkscape:collect="always"
       xlink:href="#linearGradient565"
       id="linearGradient567"
       x1="776.06738"
       y1="391.25558"
       x2="776.06738"
       y2="587.15289"
       gradientUnits="userSpaceOnUse" /><linearGradient
       inkscape:collect="always"
       xlink:href="#linearGradient1226"
       id="linearGradient1228"
       x1="169.33333"
       y1="734.87598"
       x2="169.33333"
       y2="752.45007"
       gradientUnits="userSpaceOnUse" /><inkscape:path-effect
       effect="spiro"
       id="path-effect4355"
       is_visible="true"
       lpeversion="0" /><inkscape:path-effect
       effect="spiro"
       id="path-effect4351"
       is_visible="true"
       lpeversion="0" /><linearGradient
       inkscape:collect="always"
       xlink:href="#linearGradient1226"
       id="linearGradient1819"
       gradientUnits="userSpaceOnUse"
       x1="169.33333"
       y1="734.87598"
       x2="169.33333"
       y2="752.45007" /><linearGradient
       inkscape:collect="always"
       xlink:href="#linearGradient1226"
       id="linearGradient1821"
       gradientUnits="userSpaceOnUse"
       x1="169.33333"
       y1="734.87598"
       x2="169.33333"
       y2="752.45007" /></defs><g
     inkscape:label="Calque 1"
     inkscape:groupmode="layer"
     id="layer1"
     transform="translate(0,-558.38708)"><path
       style="fill:#f9f9f9;stroke:none;stroke-width:0.0700042px;stroke-linecap:butt;stroke-linejoin:miter;stroke-opacity:1"
       d="m 0,748.88708 v -23.95269 c 0,0 112.80652,-9.15114 169.33333,-9.15114 56.52681,0 169.33334,9.15114 169.33334,9.15114 v 23.95269 H 0"
       id="path1018"
       sodipodi:nodetypes="cczccc"
       inkscape:export-filename="board.png"
       inkscape:export-xdpi="96"
       inkscape:export-ydpi="96" /><path
       id="rect1153"
       style="fill:#cccccc;stroke:#000000;stroke-width:0.538139;stop-color:#000000"
       d="m 315.18812,728.85604 v -2.61622 h 4.73208 v 2.61622"
       sodipodi:nodetypes="cccc" /><g
       id="g808"
       transform="matrix(0.26458333,0,0,0.26458333,-6.6933168,612.84117)"><path
         id="path322"
         style="fill:#ffcc00;stroke:none;stroke-width:2.06375;-inkscape-stroke:none;stop-color:#000000"
         d="m 745.69785,423.65939 -35.68051,35.68051 c 0,0 -14.44198,-11.79462 -44.71975,-11.79462 -30.27777,0 -44.71975,11.79462 -44.71975,11.79462 l -35.66036,-35.66035 c -19.50005,20.56521 -30.37599,47.82237 -30.38988,76.16279 0.002,16.6983 3.77978,33.18001 11.04998,48.21256 3.08255,-3.26415 6.25242,-6.4519 9.42423,-9.6237 l 45.76154,-45.76206 h 5.73867 25.90075 c -1.30654,2.18098 -1.99431,4.65493 -1.9942,7.1732 4e-5,7.92359 6.66606,14.34691 14.88902,14.34693 8.22295,-3e-5 14.88897,-6.42335 14.88901,-14.34693 -3.5e-4,-2.51841 -0.68866,-4.99236 -1.99574,-7.1732 h 26.27384 5.73816 l 45.76206,45.76206 c 3.08786,3.08785 6.17433,6.19049 9.1798,9.36429 7.18828,-14.96394 10.92123,-31.35222 10.92285,-47.95315 -0.003,-28.34461 -10.87223,-55.60954 -30.36972,-76.18295 z"
         sodipodi:nodetypes="ccscccccccccsccccsccc" /><path
         id="path803"
         style="fill:url(#linearGradient567);stroke-width:2.06375;-inkscape-stroke:none;stop-color:#000000;fill-opacity:1"
         d="m 745.69764,423.65941 -11.15385,11.15384 a 95,95 0 0 1 25.75347,65.02911 95,95 0 0 1 -7.06727,35.85414 l 2.73472,2.73472 c 3.08786,3.08784 6.17432,6.19049 9.1798,9.36428 a 110.7702,110.7702 0 0 0 10.92285,-47.95314 110.7702,110.7702 0 0 0 -30.36972,-76.18295 z m -160.78037,0.0202 a 110.7702,110.7702 0 0 0 -30.38988,76.16279 110.7702,110.7702 0 0 0 11.04997,48.21256 c 3.08256,-3.26416 6.25243,-6.45191 9.42424,-9.6237 l 2.47581,-2.47582 a 95,95 0 0 1 -7.17992,-36.11304 95,95 0 0 1 25.76328,-65.01929 z" /><path
         id="path1887"
         style="fill:none;stroke:#666666;stroke-width:2.06375;-inkscape-stroke:none;stop-color:#000000"
         d="m 745.69785,423.65939 -35.68051,35.68051 c 0,0 -14.44198,-11.79462 -44.71975,-11.79462 -30.27777,0 -44.71975,11.79462 -44.71975,11.79462 l -35.66036,-35.66035 a 110.7702,110.7702 0 0 0 -30.38988,76.16279 110.7702,110.7702 0 0 0 11.04998,48.21256 c 3.08255,-3.26415 6.25242,-6.4519 9.42423,-9.6237 l 45.76154,-45.76206 h 5.73867 25.90075 a 14.889065,14.347 0 0 0 -1.9942,7.1732 14.889065,14.347 0 0 0 14.88902,14.34693 14.889065,14.347 0 0 0 14.88901,-14.34693 14.889065,14.347 0 0 0 -1.99574,-7.1732 h 26.27384 5.73816 l 45.76206,45.76206 c 3.08786,3.08785 6.17433,6.19049 9.1798,9.36429 a 110.7702,110.7702 0 0 0 10.92285,-47.95315 110.7702,110.7702 0 0 0 -30.36972,-76.18295 z" /></g><g
       id="layer1-3"
       inkscape:label="Layer 1"
       style="display:none;fill:url(#linearGradient1819);fill-opacity:1"
       transform="matrix(0.02721846,0,0,0.02721846,148.36892,732.66454)"><path
         inkscape:connector-curvature="0"
         style="fill:#6e6e6e;fill-opacity:1"
         d="m 691.28764,278.7162 c 0,-4.2737 -2.9891,-9.27293 -8.1428,-13.6186 l -4.8572,-4.0956 v -7.97939 -7.97939 l 4.5032,0.61723 c 12.233,1.67672 20.7889,11.10648 24.0539,26.51064 2.0683,9.75806 2.5422,9.14398 -7.0571,9.14398 -8.4862,0 -8.5,-0.004 -8.5,-2.59887 z"
         id="path4180" /><path
         inkscape:connector-curvature="0"
         style="fill:#6e6e6e;fill-opacity:1"
         d="m 678.28764,352.39722 c 0,-7.84337 0.2491,-9.21943 1.75,-9.6684 4.5942,-1.37422 6.9321,-3.29259 9,-7.38495 1.8462,-3.65336 2.25,-6.09885 2.25,-13.62406 0,-10.47175 0.1,-10.36547 -9.75,-10.39109 l -5.25,-0.0136 v -7.5 -7.5 h 16 16 l -0.017,15.75 c -0.025,22.82332 -2.8231,34.02382 -10.3895,41.59025 -4.1514,4.15142 -8.4707,6.21893 -15.0549,7.20627 l -4.5382,0.68056 v -9.14493 z"
         id="path4178" /><path
         inkscape:connector-curvature="0"
         style="fill:#6e6e6e;fill-opacity:1"
         d="m 663.43574,359.414 c -2.9435,-1.02333 -6.5435,-2.74539 -8,-3.82679 -4.0264,-2.98957 -7.8575,-11.6298 -10.319,-23.27215 -1.9028,-8.99932 -2.2278,-13.71571 -2.2746,-32.99999 -0.058,-24.15919 0.7866,-30.7534 5.0133,-39.11974 1.2836,-2.54086 3.8185,-5.87318 5.6331,-7.40517 4.2687,-3.604 12.5431,-7.45287 16.0491,-7.46532 l 2.75,-0.01 v 8.41844 8.41844 l -3.5311,2.18233 c -7.2032,4.45184 -9.4827,14.41679 -9.448,41.30315 0.031,23.71964 2.0984,31.45538 9.5899,35.87549 l 3.4636,2.04356 -0.2872,8.61804 c -0.3314,9.94654 -0.4842,10.07454 -8.6391,7.23948 z"
         id="path4176" /><path
         inkscape:connector-curvature="0"
         style="fill:#6e6e6e;fill-opacity:1"
         d="m 600.77824,337.04277 c -7.82993,-21.05585 -9.30276,-24.26954 -11.25,-24.54725 -2.09835,-0.29927 -2.24069,-0.80706 -2.24239,-8 l -0.002,-7.68045 5.75182,0.29026 c 6.48468,0.32725 10.82084,-1.67729 13.94749,-6.44771 2.5244,-3.85156 2.51102,-16.42214 -0.0229,-21.5152 -2.1984,-4.41867 -3.11987,-4.83057 -12.42276,-5.55301 l -7.25,-0.56302 v -7.82047 c 1.7e-4,-9.39466 0.54297,-9.89085 10.82024,-9.89085 12.4109,0 21.2641,6.66346 26.1972,19.71769 2.8714,7.5987 3.1241,20.45699 0.5556,28.28231 -1.7635,5.37278 -7.1417,14.96704 -8.4271,15.03327 -0.3552,0.0183 -1.648,0.86963 -2.873,1.89184 l -2.2272,1.85857 2.3677,6.85816 c 1.3022,3.77199 5.3419,14.3403 8.9772,23.48514 3.6352,9.14485 6.6095,17.13235 6.6095,17.75 0,0.75542 -3.1914,1.11572 -9.75,1.10072 l -9.75,-0.0223 -9.0094,-24.22772 z"
         id="path4174" /><path
         inkscape:connector-curvature="0"
         style="fill:#6e6e6e;fill-opacity:1"
         d="m 564.28767,312.96869 c 0,-26.5905 0.29238,-52.4655 0.64974,-57.5 l 0.64975,-9.15362 h 7.85025 7.85026 v 57.5 57.49999 h -8.5 -8.5 z"
         id="path4172" /><path
         inkscape:connector-curvature="0"
         style="fill:#6e6e6e;fill-opacity:1"
         d="m 522.28767,352.99224 v -8.58293 l 4.08508,-3.28286 c 2.24679,-1.80557 4.68022,-4.70725 5.40762,-6.44817 4.7221,-11.30155 4.69171,-54.30456 -0.0448,-63.46405 -0.7632,-1.47588 -3.20119,-4.11977 -5.41775,-5.87532 l -4.0301,-3.1919 v -8.41597 c -5e-5,-7.91716 0.12603,-8.41597 2.12724,-8.41597 1.17,0 5.05795,1.44276 8.63987,3.20614 13.96299,6.87396 19.67399,22.30084 19.54417,52.79386 -0.0987,23.18034 -4.13476,40.05931 -12.05421,50.41102 -5.03876,6.58629 -8.14319,8.70909 -13.64288,9.32898 l -4.61424,0.52009 z"
         id="path4170" /><path
         inkscape:connector-curvature="0"
         style="fill:#6e6e6e;fill-opacity:1"
         d="m 506.6119,359.67752 c -2.29668,-0.8138 -6.20891,-3.26928 -8.69385,-5.45661 -9.41258,-8.28529 -13.00756,-22.07175 -13.0135,-49.90584 -0.006,-27.8331 3.16677,-41.89084 11.27906,-49.9755 4.92472,-4.90794 12.49375,-9.0245 16.59316,-9.0245 2.48394,0 2.5109,0.0911 2.5109,8.48581 v 8.48581 l -3.82198,2.52927 c -7.23229,4.7861 -9.24243,13.35141 -9.22594,39.31214 0.0152,23.92209 1.76578,31.71368 8.14597,36.25678 4.82962,3.43899 6.22651,7.79205 4.81035,14.99023 -1.29705,6.5928 -1.63803,6.76371 -8.58417,4.30241 z"
         id="path4168" /><path
         inkscape:connector-curvature="0"
         style="fill:#f09900;fill-opacity:1"
         d="m 453.28767,350.81506 v -10.5 h 8.5 8.5 v 10.5 10.5 h -8.5 -8.5 z"
         id="path3210" /></g><g
       id="layer2"
       inkscape:label="Layer 2"
       transform="matrix(0.02721846,0,0,0.02721846,158.97841,733.49686)"
       style="fill:url(#linearGradient1821);fill-opacity:1" /><path
       id="rect1157"
       style="fill:#cccccc;stroke:#000000;stroke-width:0.538139;stop-color:#000000"
       d="m 325.66311,728.85604 v -2.61622 h 4.73207 v 2.61622"
       sodipodi:nodetypes="cccc" /><rect
       style="fill:#f2f2f2;stroke:#000000;stroke-width:0.541819;-inkscape-stroke:none;stop-color:#000000"
       id="rect1151"
       width="20.624847"
       height="12.137175"
       x="312.47925"
       y="728.98279" /><g
       aria-label="+"
       id="text1167"
       style="font-weight:bold;font-size:22.5778px;line-height:1.25;-inkscape-font-specification:'sans-serif Bold';letter-spacing:0px;word-spacing:0px;stroke-width:0.264583"
       transform="matrix(0.28310253,0,0,0.28310253,-23.889301,542.76046)"><path
         d="m 1207.285,670.26029 h 4.2672 v 2.41583 h -4.2672 v 4.24462 h -2.4158 v -4.24462 h -4.2673 v -2.41583 h 4.2673 v -4.28978 h 2.4158 z"
         id="path1219"
         style="fill:#d40000" /></g><g
       aria-label="+"
       id="g1226"
       style="font-weight:bold;font-size:22.5778px;line-height:1.25;-inkscape-font-specification:'sans-serif Bold';letter-spacing:0px;word-spacing:0px;stroke-width:0.264583"
       transform="matrix(0.28310253,0,0,0.28310253,-13.414309,542.76046)"><path
         d="m 1211.5522,670.26029 v 2.41583 h -10.9503 v -2.41583 z"
         id="path1224"
         sodipodi:nodetypes="ccccc" /></g><path
       style="fill:#ffcc00;stroke:#ff6600;stroke-width:0.0749041px;stroke-linecap:butt;stroke-linejoin:miter;stroke-opacity:1"
       d="m 323.09099,730.87022 -2.90174,5.71882 c -0.003,0.001 3.615,-2.22372 2.44316,-0.10594 l -1.91883,3.46789 4.19859,-5.22991 c -1.08786,-0.3694 -2.55058,0.71163 -2.22859,-1.50408 z"
       id="path1228"
       sodipodi:nodetypes="ccscccc" /><rect
       style="fill:#cccccc;stroke:none;stroke-width:0.407932;-inkscape-stroke:none;stop-color:#000000"
       id="rect1282"
       width="21.166666"
       height="2.1166666"
       x="312.20834"
       y="743.59546" /><circle
       style="fill:#f2f2f2;stroke:#ff6600;stroke-width:0.526002;-inkscape-stroke:none;stop-color:#000000"
       id="path1494"
       cx="239.44792"
       cy="725.97076"
       r="19.58075" /><circle
       style="fill:#f2f2f2;stroke:#ff6600;stroke-width:0.526002;-inkscape-stroke:none;stop-color:#000000"
       id="circle1496"
       cx="99.21875"
       cy="726.39752"
       r="19.58075" /><rect
       style="fill:#cccccc;stroke:none;stroke-width:0.407932;-inkscape-stroke:none;stop-color:#000000"
       id="rect1512"
       width="21.166666"
       height="2.1166666"
       x="5.2916665"
       y="743.59546" /><path
       id="path1618"
       style="fill:none;stroke:#dde9af;stroke-width:1.01964;stroke-linecap:round;-inkscape-stroke:none;stop-color:#000000"
       d="m 22.998037,740.63976 c 3.933914,-3.93392 3.933959,-10.31204 9.7e-5,-14.24601 m -14.2461991,-10e-5 c -3.9339518,3.93396 -3.933952,10.31215 -6e-7,14.24611 l 9.69e-5,9e-5"
       sodipodi:nodetypes="cccsc" /><path
       id="circle1724"
       style="font-variation-settings:normal;opacity:1;vector-effect:none;fill:none;fill-opacity:1;stroke:#cdde87;stroke-width:1.01964;stroke-linecap:round;stroke-linejoin:miter;stroke-miterlimit:4;stroke-dasharray:none;stroke-dashoffset:0;stroke-opacity:1;-inkscape-stroke:none;stop-color:#000000;stop-opacity:1"
       d="m 20.914566,738.55629 c 2.783253,-2.78325 2.783296,-7.29577 9.6e-5,-10.07907 m -10.079257,-10e-5 c -2.783292,2.78328 -2.7832925,7.29588 -10e-7,10.07917 l 9.7e-5,9e-5"
       sodipodi:nodetypes="cccsc" /><path
       id="circle1760"
       style="font-variation-settings:normal;opacity:1;vector-effect:none;fill:none;fill-opacity:1;stroke:#89a02c;stroke-width:1.01964;stroke-linecap:round;stroke-linejoin:miter;stroke-miterlimit:4;stroke-dasharray:none;stroke-dashoffset:0;stroke-opacity:1;-inkscape-stroke:none;stop-color:#000000;stop-opacity:1"
       d="m 18.827132,736.46885 c 1.630377,-1.63039 1.63042,-4.27375 9.7e-5,-5.9042 m -5.90439,-9e-5 c -1.630413,1.63043 -1.630413,4.27386 0,5.90429 l 9.7e-5,10e-5"
       sodipodi:nodetypes="cccsc" /><circle
       style="font-variation-settings:normal;opacity:1;vector-effect:none;fill:#4d4d4d;fill-opacity:1;stroke:none;stroke-width:0.439624;stroke-linecap:butt;stroke-linejoin:miter;stroke-miterlimit:4;stroke-dasharray:none;stroke-dashoffset:0;stroke-opacity:1;-inkscape-stroke:none;stop-color:#000000;stop-opacity:1"
       id="circle1772"
       cx="529.89996"
       cy="507.44931"
       r="1.8000699"
       transform="rotate(45)" /><rect
       style="font-variation-settings:normal;opacity:1;vector-effect:none;fill:#4d4d4d;fill-opacity:1;stroke:none;stroke-width:1.01964;stroke-linecap:butt;stroke-linejoin:miter;stroke-miterlimit:4;stroke-dasharray:none;stroke-dashoffset:0;stroke-opacity:1;-inkscape-stroke:none;stop-color:#000000;stop-opacity:1"
       id="rect1857"
       width="0.99986279"
       height="7.8460097"
       x="15.37508"
       y="733.51678" /><circle
       style="font-variation-settings:normal;opacity:1;vector-effect:none;fill:#cccccc;fill-opacity:1;stroke:none;stroke-width:0.385851;stroke-linecap:butt;stroke-linejoin:miter;stroke-miterlimit:4;stroke-dasharray:none;stroke-dashoffset:0;stroke-opacity:1;-inkscape-stroke:none;stop-color:#000000;stop-opacity:1"
       id="circle2659"
       cx="99.21875"
       cy="726.39752"
       r="18.520834"
       inkscape:export-filename="board.png"
       inkscape:export-xdpi="96"
       inkscape:export-ydpi="96" /><path
       id="circle1304"
       style="fill:#f2f2f2;stroke:none;stroke-width:0.515299;-inkscape-stroke:none;stop-color:#000000"
       d="M 99.21875 707.2152 A 19.182291 19.182291 0 0 0 80.036458 726.3975 A 19.182291 19.182291 0 0 0 99.21875 745.57979 A 19.182291 19.182291 0 0 0 118.40104 726.3975 A 19.182291 19.182291 0 0 0 99.21875 707.2152 z M 102.78649 712.52031 C 103.31251 712.51141 103.85811 712.58644 104.4081 712.80298 C 105.49669 713.23156 106.09597 714.11833 106.5351 714.86125 C 106.97422 715.60417 107.31839 716.26682 107.67198 716.6229 C 108.16465 717.11905 108.97875 717.57212 109.85169 718.11893 C 110.72464 718.66574 111.70083 719.34427 112.24793 720.51 C 112.76327 721.60807 112.56453 722.68369 112.40813 723.52945 C 112.25193 724.37521 112.14303 725.04551 112.25 725.4668 C 112.42425 726.15307 113.06036 727.09599 113.16622 728.5369 C 113.27207 729.97781 112.69002 731.6897 110.88677 733.84355 A 1.11418 1.11418 0 0 1 109.31839 733.98411 A 1.11418 1.11418 0 0 1 109.1799 732.41418 C 110.77639 730.50729 111.00157 729.46643 110.94517 728.69916 C 110.88881 727.9319 110.39359 727.21159 110.08992 726.01561 C 109.80578 724.89657 110.07087 723.91099 110.21653 723.12328 C 110.36222 722.33556 110.39265 721.8007 110.23048 721.45516 C 109.98885 720.9403 109.44715 720.49591 108.66779 720.00771 C 107.88842 719.51952 106.91715 719.02669 106.08965 718.19335 C 105.3629 717.46148 104.98808 716.62321 104.61739 715.99606 C 104.24669 715.36893 103.94538 715.01603 103.59161 714.87675 C 103.05544 714.66566 102.37483 714.74303 101.46874 714.99044 C 100.56265 715.23786 99.514534 715.64758 98.308728 715.71288 C 97.12492 715.77704 96.056311 715.49918 95.142513 715.35734 C 94.228715 715.2155 93.542003 715.20947 93.031014 715.46483 C 92.586892 715.68678 92.251378 716.16314 91.872945 716.91797 C 91.494512 717.6728 91.128468 718.64338 90.367094 719.49818 C 89.619789 720.33719 88.70893 720.8068 88.013749 721.26344 C 87.318568 721.72009 86.907181 722.10167 86.771448 722.50574 C 86.630518 722.92528 86.722978 723.4577 86.994173 724.21468 C 87.265367 724.97167 87.703173 725.86055 87.845801 726.93545 C 87.997997 728.08247 87.824942 729.14034 87.765702 730.04275 C 87.706462 730.94515 87.751744 731.63416 88.043205 732.15632 C 88.185307 732.4109 89.035925 733.13573 89.83586 733.61308 C 90.635796 734.09043 91.349463 734.41406 91.349463 734.41406 A 1.11418 1.11418 0 0 1 91.910152 735.88684 A 1.11418 1.11418 0 0 1 90.435307 736.44546 C 90.435307 736.44546 89.616185 736.07789 88.693294 735.52717 C 87.770404 734.97645 86.709345 734.33802 86.097587 733.24204 C 85.468968 732.11584 85.473522 730.92495 85.541032 729.89651 C 85.608542 728.86808 85.731173 727.94097 85.636633 727.22845 C 85.558572 726.64015 85.214934 725.86083 84.89456 724.96658 C 84.574182 724.07232 84.263792 722.97146 84.658398 721.79674 C 85.057906 720.60745 85.992023 719.92539 86.791085 719.40051 C 87.590146 718.87563 88.321342 718.44627 88.703113 718.01765 C 89.106001 717.56532 89.448879 716.78578 89.882886 715.9201 C 90.316893 715.05442 90.896862 714.03953 92.035209 713.47064 C 93.218122 712.8795 94.440647 712.99233 95.484611 713.15438 C 96.528575 713.31642 97.469002 713.52711 98.187288 713.48821 C 98.913566 713.44885 99.844133 713.12532 100.88273 712.84173 C 101.40203 712.69994 101.96828 712.56509 102.56273 712.52909 C 102.63704 712.52459 102.71135 712.52158 102.78649 712.52031 z "
       inkscape:export-filename="throttle_mask.png"
       inkscape:export-xdpi="96"
       inkscape:export-ydpi="96" /><g
       id="g1093"
       inkscape:export-filename="steering_color.png"
       inkscape:export-xdpi="96"
       inkscape:export-ydpi="96"
       style="fill:url(#linearGradient1228);fill-opacity:1"><path
         id="path380"
         style="fill:url(#linearGradient1228);stroke-width:0.391148;-inkscape-stroke:none;stop-color:#000000;fill-opacity:1"
         d="m 149.67611,729.6836 c -0.1257,0.002 -0.25353,0.065 -0.37104,0.21859 -3.21884,4.2085 -5.1071,9.48168 -5.10718,15.18874 -2e-5,2.42944 0.33086,4.78231 0.98908,7.00009 0.13599,0.45821 1.22476,-0.51053 1.13482,-0.85886 -0.5069,-1.96326 -0.801,-4.01755 -0.80099,-6.14123 9e-5,-5.40764 1.80289,-10.39389 4.84002,-14.39137 0.18472,-0.24313 -0.23579,-1.02187 -0.68471,-1.01596 z"
         sodipodi:nodetypes="ccssscsc" /><path
         id="path644"
         style="fill:url(#linearGradient1228);stroke-width:0.391148;-inkscape-stroke:none;stop-color:#000000;fill-opacity:1"
         d="m 188.99044,729.6836 c 0.1257,0.002 0.25353,0.065 0.37104,0.21859 3.21884,4.2085 5.1071,9.48168 5.10718,15.18874 2e-5,2.42944 -0.33086,4.78231 -0.98908,7.00009 -0.13599,0.45821 -1.22476,-0.51053 -1.13482,-0.85886 0.5069,-1.96326 0.801,-4.01755 0.80099,-6.14123 -9e-5,-5.40764 -1.80289,-10.39389 -4.84002,-14.39137 -0.18472,-0.24313 0.23579,-1.02187 0.68471,-1.01596 z"
         sodipodi:nodetypes="ccssscsc" /><path
         id="path4147"
         style="fill:#666666;fill-opacity:1;stroke:none;stroke-width:0.180766;stroke-miterlimit:4;stroke-dasharray:none;stroke-opacity:1"
         d="m 167.57088,733.99927 -0.35166,2.4e-4 -0.35207,-2.4e-4 -1.6e-4,0.60211 -1.2e-4,0.60168 h -0.7382 l -0.73775,4e-5 4e-5,0.32911 1e-5,0.32957 0.6565,-2.7e-4 0.65645,1.8e-4 -0.72457,1.49174 c -0.39856,0.82049 -0.72473,1.49453 -0.72475,1.4988 -1e-5,0.004 0.15631,0.008 0.34746,0.008 l 0.34767,-1.6e-4 0.29307,-0.64164 c 0.9561,-2.09418 0.91104,-2.00329 0.98144,-1.97628 0.0256,0.01 1.02835,1.97551 1.02816,2.01576 0,0.006 -0.38994,0.0139 -0.86652,0.0172 l -0.86643,0.006 -0.12147,0.27051 c -0.0668,0.14897 -0.12135,0.27924 -0.12142,0.2895 0,0.0104 0.13279,0.0191 0.29517,0.019 l 0.29554,10e-6 7e-5,0.65869 10e-5,0.65824 0.35163,2.1e-4 0.35211,-2.1e-4 -8e-5,-0.65867 -6e-5,-0.65869 0.83847,1.7e-4 0.8385,-2.7e-4 -0.73441,-1.49859 -0.7344,-1.49902 0.64543,7e-5 0.64541,8e-5 v -0.32957 l -6e-5,-0.32912 -0.74967,-1.5e-4 -0.74927,3.2e-4 1.6e-4,-0.60212 z m 9.66348,1.24747 -0.21206,-0.0146 c -0.11669,-0.009 -0.35419,-0.015 -0.5275,-0.0146 l -0.31501,4.4e-4 -0.46028,1.07723 c -0.25309,0.59244 -0.46748,1.07709 -0.47663,1.0771 -0.0273,0 -0.4171,-0.82329 -0.71184,-1.50407 l -0.27473,-0.63518 -0.006,0.883 -0.007,0.8834 0.21044,0.48054 c 0.10896,0.26716 0.24172,0.55718 0.28046,0.65028 l 0.0705,0.16934 0.39142,-2e-4 0.39187,-1.6e-4 0.12353,-0.2491 c 0.0682,-0.13703 0.23255,-0.49779 0.36531,-0.80171 l 0.24135,-0.55264 0.006,1.05106 c 0.003,0.57798 0.0104,1.06345 0.0166,1.0794 0.009,0.0218 0.12035,0.0291 0.45197,0.0291 l 0.4409,-1.8e-4 2.9e-4,-1.80417 z m -3.16366,-0.0181 -0.44032,-0.007 -0.44078,-0.006 -0.008,1.79508 c -0.004,0.98735 -5.8e-4,1.80596 0.008,1.81945 0.01,0.016 0.17048,0.0244 0.45458,0.0244 l 0.43911,1.1e-4 -0.006,-1.8136 z m -1.46024,-0.0127 -0.47104,0.006 -0.47148,0.006 -0.012,1.25176 c -0.011,1.11062 -0.0173,1.26524 -0.0535,1.37351 -0.0701,0.21015 -0.20364,0.32081 -0.44009,0.36516 l -0.085,0.0163 -7e-5,0.34501 v 0.34459 l 0.0635,-4e-5 c 0.0351,-2.7e-4 0.13691,-0.0111 0.22612,-0.0239 0.43021,-0.0614 0.66129,-0.16275 0.86418,-0.37967 0.155,-0.1657 0.2387,-0.32385 0.31168,-0.58827 0.0469,-0.16956 0.0496,-0.24116 0.0585,-1.44774 z m -2.20805,5.8e-4 -0.44492,5.8e-4 c -0.24466,1.7e-4 -0.45876,0.009 -0.4758,0.02 -0.0497,0.0315 -0.0249,2.43304 0.0275,2.65573 0.1366,0.58059 0.51569,0.91528 1.14,1.00622 l 7e-5,-5.8e-4 c 0.076,0.0114 0.16691,0.022 0.202,0.0234 l 0.0638,0.003 -1.5e-4,-0.34768 c -2e-5,-0.29691 -0.005,-0.34762 -0.0355,-0.34778 -0.0646,0 -0.2586,-0.11214 -0.32,-0.18511 -0.13698,-0.16277 -0.14002,-0.195 -0.14884,-1.57014 z m -5.5594,-0.0224 -0.38833,5e-5 c -0.21349,1.6e-4 -0.42709,0.007 -0.4749,0.0148 l -0.087,0.0143 -1.6e-4,0.68075 -1.1e-4,0.68032 -0.60215,2.7e-4 -0.60255,-2e-4 v 0.35916 0.35916 l 0.60256,2e-4 0.6026,-2.3e-4 -2.2e-4,0.76511 2.6e-4,0.76474 0.47493,-2.3e-4 0.47488,2.3e-4 3e-4,-1.81918 z m -2.31753,3e-5 -0.38831,4e-5 c -0.21351,1.5e-4 -0.42709,0.007 -0.4749,0.0148 l -0.087,0.0143 1.2e-4,1.80463 1.2e-4,1.80464 0.47487,2.2e-4 0.47537,-1.7e-4 -1.3e-4,-1.81922 z" /></g></g></svg>
