<?xml version="1.0" encoding="UTF-8" standalone="no"?>
<!-- Created with Inkscape (http://www.inkscape.org/) -->

<svg
   width="1280"
   height="720"
   viewBox="0 0 338.66666 190.5"
   version="1.1"
   id="svg5"
   inkscape:version="1.2.2 (b0a8486541, 2022-12-01)"
   sodipodi:docname="cockpit.svg"
   xmlns:inkscape="http://www.inkscape.org/namespaces/inkscape"
   xmlns:sodipodi="http://sodipodi.sourceforge.net/DTD/sodipodi-0.dtd"
   xmlns="http://www.w3.org/2000/svg"
   xmlns:svg="http://www.w3.org/2000/svg">
  <sodipodi:namedview
     id="namedview7"
     pagecolor="#000000"
     bordercolor="#999999"
     borderopacity="1"
     inkscape:showpageshadow="0"
     inkscape:pageopacity="0"
     inkscape:pagecheckerboard="0"
     inkscape:deskcolor="#d1d1d1"
     inkscape:document-units="mm"
     showgrid="false"
     inkscape:zoom="1.4283791"
     inkscape:cx="613.63261"
     inkscape:cy="361.24863"
     inkscape:window-width="3200"
     inkscape:window-height="1731"
     inkscape:window-x="0"
     inkscape:window-y="0"
     inkscape:window-maximized="1"
     inkscape:current-layer="layer1"
     showguides="true" />
  <defs
     id="defs2">
    <inkscape:path-effect
       effect="spiro"
       id="path-effect635"
       is_visible="true"
       lpeversion="1" />
    <inkscape:path-effect
       effect="spiro"
       id="path-effect499"
       is_visible="true"
       lpeversion="1" />
  </defs>
  <g
     inkscape:label="Calque 1"
     inkscape:groupmode="layer"
     id="layer1"
     transform="translate(0,-558.38708)">
    <path
       style="fill:#f9f9f9;stroke:none;stroke-width:0.0700042px;stroke-linecap:butt;stroke-linejoin:miter;stroke-opacity:1"
       d="m 0,748.88708 v -23.95269 c 0,0 112.80652,-9.15114 169.33333,-9.15114 56.52681,0 169.33334,9.15114 169.33334,9.15114 v 23.95269 H 0"
       id="path1018"
       sodipodi:nodetypes="cczccc"
       inkscape:export-filename="board.png"
       inkscape:export-xdpi="96"
       inkscape:export-ydpi="96" />
    <path
       id="rect1153"
       style="fill:#cccccc;stroke:#000000;stroke-width:0.538139;stop-color:#000000"
       d="m 315.18812,728.85604 v -2.61622 h 4.73208 v 2.61622"
       sodipodi:nodetypes="cccc" />
    <g
       id="g808"
       transform="matrix(0.26458333,0,0,0.26458333,-6.6932638,612.84117)">
      <path
         id="path322"
         style="fill:#ffcc00;stroke:none;stroke-width:2.06375;-inkscape-stroke:none;stop-color:#000000"
         d="m 745.69785,423.65939 -35.68051,35.68051 c 0,0 -14.44198,-11.79462 -44.71975,-11.79462 -30.27777,0 -44.71975,11.79462 -44.71975,11.79462 l -35.66036,-35.66035 a 110.7702,110.7702 0 0 0 -30.38988,76.16279 110.7702,110.7702 0 0 0 11.04998,48.21256 c 3.08255,-3.26415 6.25242,-6.4519 9.42423,-9.6237 l 45.76154,-45.76206 h 5.73867 25.90075 a 14.889065,14.347 0 0 0 -1.9942,7.1732 14.889065,14.347 0 0 0 14.88902,14.34693 14.889065,14.347 0 0 0 14.88901,-14.34693 14.889065,14.347 0 0 0 -1.99574,-7.1732 h 26.27384 5.73816 l 45.76206,45.76206 c 3.08786,3.08785 6.17433,6.19049 9.1798,9.36429 a 110.7702,110.7702 0 0 0 10.92285,-47.95315 110.7702,110.7702 0 0 0 -30.36972,-76.18295 z" />
      <path
         id="path803"
         style="fill:#0088aa;stroke-width:2.06375;-inkscape-stroke:none;stop-color:#000000"
         d="m 745.69764,423.65941 -11.15385,11.15384 a 95,95 0 0 1 25.75347,65.02911 95,95 0 0 1 -7.06727,35.85414 l 2.73472,2.73472 c 3.08786,3.08784 6.17432,6.19049 9.1798,9.36428 a 110.7702,110.7702 0 0 0 10.92285,-47.95314 110.7702,110.7702 0 0 0 -30.36972,-76.18295 z m -160.78037,0.0202 a 110.7702,110.7702 0 0 0 -30.38988,76.16279 110.7702,110.7702 0 0 0 11.04997,48.21256 c 3.08256,-3.26416 6.25243,-6.45191 9.42424,-9.6237 l 2.47581,-2.47582 a 95,95 0 0 1 -7.17992,-36.11304 95,95 0 0 1 25.76328,-65.01929 z" />
      <path
         id="path1887"
         style="fill:none;stroke:#666666;stroke-width:2.06375;-inkscape-stroke:none;stop-color:#000000"
         d="m 745.69785,423.65939 -35.68051,35.68051 c 0,0 -14.44198,-11.79462 -44.71975,-11.79462 -30.27777,0 -44.71975,11.79462 -44.71975,11.79462 l -35.66036,-35.66035 a 110.7702,110.7702 0 0 0 -30.38988,76.16279 110.7702,110.7702 0 0 0 11.04998,48.21256 c 3.08255,-3.26415 6.25242,-6.4519 9.42423,-9.6237 l 45.76154,-45.76206 h 5.73867 25.90075 a 14.889065,14.347 0 0 0 -1.9942,7.1732 14.889065,14.347 0 0 0 14.88902,14.34693 14.889065,14.347 0 0 0 14.88901,-14.34693 14.889065,14.347 0 0 0 -1.99574,-7.1732 h 26.27384 5.73816 l 45.76206,45.76206 c 3.08786,3.08785 6.17433,6.19049 9.1798,9.36429 a 110.7702,110.7702 0 0 0 10.92285,-47.95315 110.7702,110.7702 0 0 0 -30.36972,-76.18295 z" />
    </g>
    <path
       id="rect1157"
       style="fill:#cccccc;stroke:#000000;stroke-width:0.538139;stop-color:#000000"
       d="m 325.66311,728.85604 v -2.61622 h 4.73207 v 2.61622"
       sodipodi:nodetypes="cccc" />
    <rect
       style="fill:#f2f2f2;stroke:#000000;stroke-width:0.541819;-inkscape-stroke:none;stop-color:#000000"
       id="rect1151"
       width="20.624847"
       height="12.137175"
       x="312.47925"
       y="728.98279" />
    <g
       aria-label="+"
       id="text1167"
       style="font-weight:bold;font-size:22.5778px;line-height:1.25;-inkscape-font-specification:'sans-serif Bold';letter-spacing:0px;word-spacing:0px;stroke-width:0.264583"
       transform="matrix(0.28310253,0,0,0.28310253,-23.889301,542.76046)">
      <path
         d="m 1207.285,670.26029 h 4.2672 v 2.41583 h -4.2672 v 4.24462 h -2.4158 v -4.24462 h -4.2673 v -2.41583 h 4.2673 v -4.28978 h 2.4158 z"
         id="path1219"
         style="fill:#d40000" />
    </g>
    <g
       aria-label="+"
       id="g1226"
       style="font-weight:bold;font-size:22.5778px;line-height:1.25;-inkscape-font-specification:'sans-serif Bold';letter-spacing:0px;word-spacing:0px;stroke-width:0.264583"
       transform="matrix(0.28310253,0,0,0.28310253,-13.414309,542.76046)">
      <path
         d="m 1211.5522,670.26029 v 2.41583 h -10.9503 v -2.41583 z"
         id="path1224"
         sodipodi:nodetypes="ccccc" />
    </g>
    <path
       style="fill:#ffcc00;stroke:#ff6600;stroke-width:0.0749041px;stroke-linecap:butt;stroke-linejoin:miter;stroke-opacity:1"
       d="m 323.09099,730.87022 -2.90174,5.71882 c -0.003,0.001 3.615,-2.22372 2.44316,-0.10594 l -1.91883,3.46789 4.19859,-5.22991 c -1.08786,-0.3694 -2.55058,0.71163 -2.22859,-1.50408 z"
       id="path1228"
       sodipodi:nodetypes="ccscccc" />
    <rect
       style="fill:#cccccc;stroke:none;stroke-width:0.407932;-inkscape-stroke:none;stop-color:#000000"
       id="rect1282"
       width="21.166666"
       height="2.1166666"
       x="312.20834"
       y="743.59546" />
    <circle
       style="fill:#f2f2f2;stroke:#ff6600;stroke-width:0.526002;-inkscape-stroke:none;stop-color:#000000"
       id="path1494"
       cx="239.44792"
       cy="725.97076"
       r="19.58075" />
    <circle
       style="fill:#f2f2f2;stroke:#ff6600;stroke-width:0.526002;-inkscape-stroke:none;stop-color:#000000"
       id="circle1496"
       cx="99.21875"
       cy="726.39752"
       r="19.58075" />
    <rect
       style="fill:#cccccc;stroke:none;stroke-width:0.407932;-inkscape-stroke:none;stop-color:#000000"
       id="rect1512"
       width="21.166666"
       height="2.1166666"
       x="5.2916665"
       y="743.59546" />
    <path
       id="path1618"
       style="fill:none;stroke:#dde9af;stroke-width:1.01964;stroke-linecap:round;-inkscape-stroke:none;stop-color:#000000"
       d="m 22.998037,740.63976 c 3.933914,-3.93392 3.933959,-10.31204 9.7e-5,-14.24601 m -14.2461991,-10e-5 c -3.9339518,3.93396 -3.933952,10.31215 -6e-7,14.24611 l 9.69e-5,9e-5"
       sodipodi:nodetypes="cccsc" />
    <path
       id="circle1724"
       style="font-variation-settings:normal;opacity:1;vector-effect:none;fill:none;fill-opacity:1;stroke:#cdde87;stroke-width:1.01964;stroke-linecap:round;stroke-linejoin:miter;stroke-miterlimit:4;stroke-dasharray:none;stroke-dashoffset:0;stroke-opacity:1;-inkscape-stroke:none;stop-color:#000000;stop-opacity:1"
       d="m 20.914566,738.55629 c 2.783253,-2.78325 2.783296,-7.29577 9.6e-5,-10.07907 m -10.079257,-10e-5 c -2.783292,2.78328 -2.7832925,7.29588 -10e-7,10.07917 l 9.7e-5,9e-5"
       sodipodi:nodetypes="cccsc" />
    <path
       id="circle1760"
       style="font-variation-settings:normal;opacity:1;vector-effect:none;fill:none;fill-opacity:1;stroke:#89a02c;stroke-width:1.01964;stroke-linecap:round;stroke-linejoin:miter;stroke-miterlimit:4;stroke-dasharray:none;stroke-dashoffset:0;stroke-opacity:1;-inkscape-stroke:none;stop-color:#000000;stop-opacity:1"
       d="m 18.827132,736.46885 c 1.630377,-1.63039 1.63042,-4.27375 9.7e-5,-5.9042 m -5.90439,-9e-5 c -1.630413,1.63043 -1.630413,4.27386 0,5.90429 l 9.7e-5,10e-5"
       sodipodi:nodetypes="cccsc" />
    <circle
       style="font-variation-settings:normal;opacity:1;vector-effect:none;fill:#4d4d4d;fill-opacity:1;stroke:none;stroke-width:0.439624;stroke-linecap:butt;stroke-linejoin:miter;stroke-miterlimit:4;stroke-dasharray:none;stroke-dashoffset:0;stroke-opacity:1;-inkscape-stroke:none;stop-color:#000000;stop-opacity:1"
       id="circle1772"
       cx="529.89996"
       cy="507.44931"
       r="1.8000699"
       transform="rotate(45)" />
    <rect
       style="font-variation-settings:normal;opacity:1;vector-effect:none;fill:#4d4d4d;fill-opacity:1;stroke:none;stroke-width:1.01964;stroke-linecap:butt;stroke-linejoin:miter;stroke-miterlimit:4;stroke-dasharray:none;stroke-dashoffset:0;stroke-opacity:1;-inkscape-stroke:none;stop-color:#000000;stop-opacity:1"
       id="rect1857"
       width="0.99986279"
       height="7.8460097"
       x="15.37508"
       y="733.51678" />
  </g>
</svg>
