<?xml version="1.0" encoding="UTF-8" standalone="no"?>
<!-- Created with Inkscape (http://www.inkscape.org/) -->

<svg
   width="42.333336mm"
   height="52.916668mm"
   viewBox="0 0 42.333336 52.916668"
   version="1.1"
   id="svg5"
   inkscape:version="1.2.2 (b0a8486541, 2022-12-01)"
   sodipodi:docname="racegame.svg"
   xmlns:inkscape="http://www.inkscape.org/namespaces/inkscape"
   xmlns:sodipodi="http://sodipodi.sourceforge.net/DTD/sodipodi-0.dtd"
   xmlns="http://www.w3.org/2000/svg"
   xmlns:svg="http://www.w3.org/2000/svg">
  <sodipodi:namedview
     id="namedview7"
     pagecolor="#ffffff"
     bordercolor="#999999"
     borderopacity="1"
     inkscape:showpageshadow="true"
     inkscape:pageopacity="0"
     inkscape:pagecheckerboard="true"
     inkscape:deskcolor="#d1d1d1"
     inkscape:document-units="mm"
     showgrid="false"
     inkscape:zoom="1.5437957"
     inkscape:cx="428.48935"
     inkscape:cy="31.092197"
     inkscape:window-width="3200"
     inkscape:window-height="1731"
     inkscape:window-x="0"
     inkscape:window-y="0"
     inkscape:window-maximized="1"
     inkscape:current-layer="layer1" />
  <defs
     id="defs2" />
  <g
     inkscape:label="Calque 1"
     inkscape:groupmode="layer"
     id="layer1"
     transform="translate(-72.985417,-95.727055)">
    <rect
       style="fill:#f9f9f9;stroke:#ff6600;stroke-width:0.529167;stroke-dasharray:none;stroke-opacity:1;stop-color:#000000"
       id="rect243"
       width="41.804169"
       height="52.387501"
       x="73.25"
       y="95.991638"
       ry="5.2916665"
       inkscape:export-filename="bg.png"
       inkscape:export-xdpi="96"
       inkscape:export-ydpi="96"
       rx="5.2916665" />
    <rect
       style="fill:#cccccc;stroke:none;stroke-width:1.51203;stroke-linecap:round;stroke-linejoin:round;-inkscape-stroke:none;stop-color:#000000"
       id="rect462"
       width="5.2916665"
       height="42.333332"
       x="76.95417"
       y="101.01872"
       inkscape:export-filename="bg.png"
       inkscape:export-xdpi="96"
       inkscape:export-ydpi="96" />
    <path
       id="rect1011"
       style="fill:#f9f9f9;stroke:none;stroke-width:0.529167;stroke-linecap:butt;stroke-linejoin:miter;-inkscape-stroke:none;stop-color:#000000;font-variation-settings:normal;opacity:1;vector-effect:none;fill-opacity:1;stroke-miterlimit:4;stroke-dasharray:none;stroke-dashoffset:0;stroke-opacity:1;stop-opacity:1"
       d="M 75.63125 99.695805 L 75.63125 144.67497 L 83.56875 144.67497 L 83.56875 99.695805 L 75.63125 99.695805 z M 79.71989 101.30914 A 1.322915 1.322915 0 0 1 80.015479 101.32413 A 1.322915 1.322915 0 0 1 81.107402 102.84393 C 81.107402 102.84393 80.394006 107.26019 80.316236 110.23263 C 80.239495 113.16581 80.920879 115.27246 81.294987 120.88469 C 81.479301 123.6497 80.869259 126.80932 80.708977 129.9999 C 80.512489 133.91115 80.986449 136.71731 80.56635 141.85344 A 1.322915 1.322915 0 0 1 79.13853 143.06422 A 1.322915 1.322915 0 0 1 77.929818 141.63846 C 78.33005 136.74525 77.856427 134.04366 78.066244 129.86709 C 78.237909 126.44994 78.801169 123.26335 78.654322 121.06039 C 78.291928 115.6239 77.584213 113.51584 77.671953 110.16235 C 77.758664 106.84811 78.496192 102.41605 78.496192 102.41605 A 1.322915 1.322915 0 0 1 79.71989 101.30914 z "
       inkscape:export-filename="./boost_mask.png"
       inkscape:export-xdpi="96"
       inkscape:export-ydpi="96" />
    <path
       id="path351"
       style="fill:#808080;stroke-width:0.0207246;stop-color:#000000"
       inkscape:transform-center-x="0.065990574"
       inkscape:transform-center-y="0.050329178"
       d="m 78.13368,121.89722 c -0.415626,0.29812 -0.868755,0.5372 -1.322917,0.76801 v -1.53602 c 0.471505,0.21078 0.89453,0.48389 1.322917,0.76801 z"
       sodipodi:nodetypes="cccc"
       inkscape:export-filename="./boost_mask.png"
       inkscape:export-xdpi="96"
       inkscape:export-ydpi="96" />
    <path
       id="path351-3"
       style="fill:#808080;stroke-width:0.0207246;stop-color:#000000"
       inkscape:transform-center-x="-0.065988926"
       inkscape:transform-center-y="-0.050330822"
       d="m 80.856771,111.60205 c 0.41563,-0.29812 0.86876,-0.5372 1.32292,-0.76801 v 1.53602 c -0.47151,-0.21078 -0.89453,-0.48389 -1.32292,-0.76801 z"
       sodipodi:nodetypes="cccc" />
  </g>
</svg>
